<?xml version="1.0" encoding="UTF-8" standalone="no"?>
<svg
   xmlns:dc="http://purl.org/dc/elements/1.1/"
   xmlns:cc="http://creativecommons.org/ns#"
   xmlns:rdf="http://www.w3.org/1999/02/22-rdf-syntax-ns#"
   xmlns:svg="http://www.w3.org/2000/svg"
   xmlns="http://www.w3.org/2000/svg"
   xmlns:sodipodi="http://sodipodi.sourceforge.net/DTD/sodipodi-0.dtd"
   xmlns:inkscape="http://www.inkscape.org/namespaces/inkscape"
   sodipodi:docname="X-10.svg"
   inkscape:version="1.0 (4035a4fb49, 2020-05-01)"
   id="X-10"
   version="1.1"
   viewBox="0 0 210 297"
   height="60px"
   width="30px">
  <defs
     id="defs2" />
  <style
     id="styles">
    .body {
      fill-opacity:1;
      stroke-width:0.71780843
    }
    .interior {
      fill:tan;
      stroke-width:0.71780843
    }
    .outline {
      fill:#000000;
      stroke-width:0.71780843
    }
    .window {
      fill:silver;
      fill-opacity:0.8;
      stroke-width:0.71780843
    }
  </style>
  <sodipodi:namedview
     inkscape:document-rotation="0"
     inkscape:window-maximized="1"
     inkscape:window-y="-9"
     inkscape:window-x="-9"
     inkscape:window-height="1013"
     inkscape:window-width="1920"
     showgrid="true"
     inkscape:current-layer="layer1"
     inkscape:document-units="mm"
     inkscape:cy="30.820991"
     inkscape:cx="23.302573"
     inkscape:zoom="11.687991"
     inkscape:pageshadow="2"
     inkscape:pageopacity="0.0"
     borderopacity="1.0"
     bordercolor="#666666"
     pagecolor="#ffffff"
     id="base">
    <inkscape:grid
       id="grid861"
       type="xygrid" />
  </sodipodi:namedview>
  <metadata
     id="metadata5">
    <rdf:RDF>
      <cc:Work
         rdf:about="">
        <dc:format>image/svg+xml</dc:format>
        <dc:type
           rdf:resource="http://purl.org/dc/dcmitype/StillImage" />
        <dc:title />
      </cc:Work>
    </rdf:RDF>
  </metadata>
  <g
     id="layer1"
     inkscape:groupmode="layer"
     inkscape:label="Layer 1">
    <g
       id="g823"
       inkscape:label="Car_Wars_Expansion_Set_6_The_AADA_Vehicle_Guide_Counters"
       transform="matrix(0.20064797,0,0,-0.18414237,-50.051873,248.56986)">
      <g
         id="g825"
         transform="scale(612,792)" />
    </g>
    <path
       inkscape:connector-curvature="0"
       id="path17"
       d="m 111.31713,-26.500744 c -30.316674,0.2629 -66.190029,5.555826 -69.967624,12.295805 -2.243376,4.005135 -4.857678,16.2125709 -6.203491,28.966916 -0.718319,6.806919 -1.78676,15.892445 -2.375221,20.192071 -0.588419,4.300156 -1.287018,16.60936 -1.551133,27.355186 -0.557422,22.670076 -2.696613,72.737906 -3.311277,77.503216 -0.230983,1.78795 -0.164734,6.69555 0.146508,10.89826 0.31187,4.20218 0.595946,19.73084 0.630144,34.50833 0.06702,28.56698 2.857964,85.47593 4.829261,98.48613 0.650913,4.29565 2.666786,12.78604 4.47962,18.86783 3.00447,10.08117 3.683005,11.26845 7.678233,13.41222 11.010549,5.9088 40.253911,9.22111 70.65048,8.00257 28.32305,-1.12546 36.34452,-2.4255 46.19076,-7.40051 8.35288,-4.22519 9.33071,-6.15773 10.59972,-20.97054 0.39835,-4.65738 1.71981,-15.0498 2.93486,-23.09311 1.21711,-8.04271 2.09955,-15.07703 1.96287,-15.63378 -0.1463,-0.55051 0.35156,-5.70175 1.08491,-11.43405 2.91987,-22.84792 3.88693,-54.90943 3.00618,-99.64047 -0.48694,-24.71165 -0.96828,-49.617559 -1.07356,-55.347856 -0.54002,-29.894456 -2.61906,-62.560956 -4.80986,-75.521759 -3.05251,-18.0575441 -6.62035,-31.093857 -9.17815,-33.538968 -1.09145,-1.043862 -4.8972,-2.229199 -8.45867,-2.657247 -3.56139,-0.422407 -10.98071,-1.73985 -16.48634,-2.926376 -7.90549,-1.713811 -18.91746,-2.402325 -30.78049,-2.323124 z"
       class="interior" />
    <path
       inkscape:connector-curvature="0"
       id="path4634"
       d="m 111.31713,-26.500744 c -30.316674,0.2629 -66.190029,5.555826 -69.967624,12.295805 -2.243376,4.005135 -4.857678,16.2125709 -6.203491,28.966916 -0.718319,6.806919 -1.78676,15.892445 -2.375221,20.192071 -0.588419,4.300156 -1.287018,16.60936 -1.551133,27.355186 -0.557422,22.670076 -2.696613,72.737906 -3.311277,77.503216 -0.230983,1.78795 -0.164734,6.69555 0.146508,10.89826 0.31187,4.20218 0.595946,19.73084 0.630144,34.50833 0.06702,28.56698 2.857964,85.47593 4.829261,98.48613 0.650913,4.29565 2.666786,12.78604 4.47962,18.86783 3.00447,10.08117 3.683005,11.26845 7.678233,13.41222 11.010549,5.9088 40.253911,9.22111 70.65048,8.00257 28.32305,-1.12546 36.34452,-2.4255 46.19076,-7.40051 8.35288,-4.22519 9.33071,-6.15773 10.59972,-20.97054 0.39835,-4.65738 1.71981,-15.0498 2.93486,-23.09311 1.21711,-8.04271 2.09955,-15.07703 1.96287,-15.63378 -0.1463,-0.55051 0.35156,-5.70175 1.08491,-11.43405 2.91987,-22.84792 3.88693,-54.90943 3.00618,-99.64047 -0.48694,-24.71165 -0.96828,-49.617559 -1.07356,-55.347856 -0.54002,-29.894456 -2.61906,-62.560956 -4.80986,-75.521759 -3.05251,-18.0575441 -6.62035,-31.093857 -9.17815,-33.538968 -1.09145,-1.043862 -4.8972,-2.229199 -8.45867,-2.657247 -3.56139,-0.422407 -10.98071,-1.73985 -16.48634,-2.926376 -7.90549,-1.713811 -18.91746,-2.402325 -30.78049,-2.323124 z"
       class="outline" />
    <path
       style="image-rendering:auto"
       inkscape:connector-curvature="0"
       class="body"
       id="path4632"
       d="m 99.31561,-2.3166494 c 25.65654,-0.2233846 59.97051,2.5325438 63.00417,5.8639895 1.52286,1.6636967 5.41427,24.5630409 7.0351,41.3754079 2.16243,22.431358 1.46258,108.364662 -0.87009,106.781092 -0.46525,-0.32654 -1.19079,-3.07623 -1.61507,-6.13526 -0.72313,-5.22081 -5.6406,-24.08833 -7.98395,-30.63422 -0.58119,-1.62874 -2.49927,-3.55378 -4.26264,-4.28997 -8.70804,-3.62928 -93.94701,-1.92826 -100.795597,2.02343 -3.05691,1.75078 -6.342115,10.76256 -8.29094,22.7252 -2.632169,16.15753 -3.207139,24.30401 -1.967165,27.8512 0.872086,2.50014 0.638058,4.38102 -0.966563,7.81694 l -2.115641,4.52909 -1.283754,-3.66172 c -1.401962,-3.99731 -1.633196,-6.58781 -0.682523,-7.64591 0.336292,-0.37051 0.565802,-17.41449 0.510294,-37.86588 C 38.923733,86.421676 40.037432,61.561893 42.707032,44.407557 43.630165,38.474855 45.026917,28.148276 45.810629,21.460444 46.6654,14.170071 47.982796,8.3740811 49.10275,6.9847692 51.219,4.3639392 62.426814,1.2225368 78.023874,-1.1127179 83.172948,-1.8885694 90.763259,-2.2528621 99.315467,-2.3152876 Z" />
    <path
       inkscape:connector-curvature="0"
       class="window"
       id="windshield"
       d="m 102.63833,114.72008 c 21.87451,-0.12848 44.91718,0.87757 48.36947,2.613 4.62626,2.31521 6.80353,8.61038 9.12876,26.38487 1.67981,12.83745 0.51723,14.90631 -5.65776,10.0711 -6.43769,-5.03899 -34.25869,-6.52721 -68.186676,-3.64693 -20.202771,1.71177 -24.738412,2.82326 -29.396899,7.19135 -4.156264,3.89452 -5.580937,4.03854 -7.195093,0.71788 -0.674835,-1.37425 -1.147902,-2.69853 -1.051178,-2.92734 0.104346,-0.2871 0.358563,-2.16775 0.581508,-4.31948 1.279996,-12.328 4.419394,-27.99579 6.1118,-30.49506 1.658549,-2.44581 3.736812,-3.09185 13.667141,-4.22111 7.799865,-0.89683 20.50447,-1.3149 33.629237,-1.38546 z" />
    <path
       inkscape:connector-curvature="0"
       id="path4628"
       d="m 126.96823,153.94456 c 10.11119,-0.0768 13.80115,0.86482 21.63144,3.17562 3.99897,1.17862 5.55994,8.19748 4.60605,20.69694 -0.49254,6.44854 -0.91775,16.59846 -0.94687,22.55541 -0.0217,5.95585 -0.58471,11.9413 -1.23742,13.30037 -3.50073,7.29429 -24.01827,11.9934 -52.32219,11.98548 -20.595146,-0.0266 -28.819114,-1.34695 -37.74509,-6.16244 l -4.246158,-2.29578 -0.274289,-24.31533 c -0.254251,-22.73779 -0.116473,-24.5997 2.206715,-28.68216 1.364462,-2.40963 3.274051,-5.09914 4.244838,-5.99698 1.23245,-1.14153 12.286599,-2.13141 36.665495,-3.26554 12.972119,-0.61696 21.350119,-0.97985 27.416899,-1.01199 z"
       class="body" />
    <path
       inkscape:connector-curvature="0"
       id="path4626"
       d="m 167.99862,160.69341 c 0.42038,0.0346 0.82863,0.29512 1.06682,0.68967 0.38132,0.68357 0.1893,1.56483 -0.42028,2.00034 -0.61123,0.42598 -1.42527,0.27353 -1.80588,-0.46001 -0.38137,-0.68345 -0.18933,-1.56672 0.42019,-1.9998 0.22963,-0.21314 0.48703,-0.2814 0.74053,-0.27869 z"
       class="outline" />
    <path
       inkscape:connector-curvature="0"
       id="path4624"
       d="m 169.48549,167.25134 c 0.0779,0.003 0.15708,0.0656 0.24716,0.13881 0.64939,0.43031 1.18494,2.56003 1.19101,4.7084 0.008,2.27332 -0.48057,3.5721 -1.16765,3.10632 -0.64927,-0.43109 -1.18477,-2.55994 -1.19132,-4.70842 -0.005,-1.9893 0.36644,-3.23193 0.92096,-3.19917 z"
       class="outline" />
    <path
       inkscape:connector-curvature="0"
       id="rightWindow"
       d="m 159.96252,173.9094 c 0.45719,0.0818 0.88813,0.40106 1.39312,1.07173 0.97993,1.28775 1.02413,6.40771 0.1642,19.22593 -1.27352,19.09164 -1.64484,21.27813 -3.41545,20.07594 -1.94011,-1.31358 -1.65771,-37.76957 0.30648,-39.58472 0.60678,-0.55618 1.08944,-0.8131 1.54591,-0.78831 z"
       class="window" />
    <path
       inkscape:connector-curvature="0"
       id="leftWindow"
       d="m 47.493435,177.31375 c 0.916666,0.20917 1.842617,7.02194 2.01377,19.24345 0.156765,11.13607 -0.838847,16.20539 -2.575678,13.11936 -1.082773,-1.93305 -1.57991,-10.16105 -1.198179,-19.86877 0.340012,-8.65986 1.04686,-12.60922 1.760087,-12.49404 z"
       class="window" />
    <path
       inkscape:connector-curvature="0"
       id="path4618"
       d="m 169.83706,179.73046 c 0.50166,-0.30258 1.21789,4.24167 1.68226,10.79855 0.48573,6.87212 0.52284,13.14212 0.0757,13.93775 -0.44009,0.80495 -1.00932,7.71432 -1.26453,15.37293 -0.95956,28.90322 -5.04396,66.61761 -7.60862,70.266 -1.47261,2.0956 -7.73738,3.95412 -19.27604,5.72152 -17.88209,2.73753 -22.38342,3.04079 -45.124361,3.03037 -23.570288,-0.0364 -34.724214,-1.72872 -49.090655,-7.60708 -4.846265,-1.97751 -4.954078,-2.15313 -5.668468,-9.35537 -0.400605,-4.03626 -1.292696,-10.85272 -1.983276,-15.14804 -1.572253,-9.77768 -3.11109,-86.3524 -1.705235,-84.85566 0.563679,0.6095 1.060365,4.69959 1.103247,9.11148 0.18755,19.31153 2.374602,29.49954 6.669633,31.06791 0.958403,0.34031 0.746375,1.57535 -0.699418,4.04175 -2.183782,3.71368 -2.075951,9.01149 0.488338,23.90226 1.776259,10.3139 8.303075,31.65897 10.912763,35.68729 2.965924,4.5788 8.68234,5.9159 32.894998,7.69213 22.247594,1.63383 20.041844,1.63572 36.516154,0.1109 14.37609,-1.36802 19.97971,-3.47711 22.55946,-8.53018 2.58025,-5.05343 5.58747,-15.31833 10.37225,-35.40669 3.92582,-16.48206 4.42478,-19.99684 3.27067,-23.05207 -1.10686,-2.93023 -1.01221,-4.16281 0.50906,-6.58144 1.23567,-1.95979 1.86365,-5.77816 1.8483,-11.22861 -0.0292,-8.97305 1.97889,-25.89519 3.41499,-28.81018 0.0254,-0.10637 0.0626,-0.14797 0.10436,-0.18049 z"
       class="body" />
    <path
       inkscape:connector-curvature="0"
       id="rearWindow"
       d="m 147.43211,224.84183 c 2.34892,0.0483 3.78565,0.76999 5.61114,2.12757 2.90408,2.17279 3.91666,3.89522 3.93062,6.6846 0.0706,12.27099 -7.01775,42.06905 -11.19683,47.12311 -1.37905,1.66061 -4.55238,3.62715 -7.04962,4.35362 -7.03834,2.04473 -43.737482,3.28399 -50.23859,1.69833 -3.07279,-0.74835 -9.142252,-1.40677 -13.48811,-1.45598 -4.345941,-0.0917 -8.790632,-0.60934 -9.876779,-1.25763 -2.907945,-1.69026 -7.531905,-13.29493 -10.318303,-25.8863 -1.345423,-6.081 -2.80156,-14.313 -3.234641,-18.29452 -0.707792,-6.50461 -0.48939,-7.62544 2.154263,-11.04746 l 2.94149,-3.80765 9.253129,2.54264 c 7.790505,2.13492 13.257246,2.52847 34.558961,2.46621 15.23454,-0.0849 27.40898,-0.68821 30.59496,-1.59313 8.80875,-2.52036 13.3379,-3.67584 16.35806,-3.64396 z"
       class="window" />
  </g>
</svg>
