<?xml version="1.0" encoding="UTF-8" standalone="no"?>
<svg
   xmlns:dc="http://purl.org/dc/elements/1.1/"
   xmlns:cc="http://creativecommons.org/ns#"
   xmlns:rdf="http://www.w3.org/1999/02/22-rdf-syntax-ns#"
   xmlns:svg="http://www.w3.org/2000/svg"
   xmlns="http://www.w3.org/2000/svg"
   xmlns:sodipodi="http://sodipodi.sourceforge.net/DTD/sodipodi-0.dtd"
   xmlns:inkscape="http://www.inkscape.org/namespaces/inkscape"
   sodipodi:docname="X-10.svg"
   inkscape:version="1.0 (4035a4fb49, 2020-05-01)"
   id="X-10"
   version="1.1"
   viewBox="0 0 210 297"
   height="60px"
   width="30px">
  <defs
     id="defs2" />
  <style
     id="styles">
    .body {
      fill-opacity:1;
      stroke-width:0.71780843
    }
    .interior {
      fill:tan;
      stroke-width:0.71780843
    }
    .outline {
      fill:#000000;
      stroke-width:0.71780843
    }
    .window {
      fill:silver;
      fill-opacity:0.8;
      stroke-width:0.71780843
    }
  </style>
  <sodipodi:namedview
     inkscape:document-rotation="0"
     inkscape:window-maximized="1"
     inkscape:window-y="-9"
     inkscape:window-x="-9"
     inkscape:window-height="1013"
     inkscape:window-width="1920"
     showgrid="true"
     inkscape:current-layer="layer1"
     inkscape:document-units="mm"
     inkscape:cy="30.649875"
     inkscape:cx="23.302573"
     inkscape:zoom="11.687991"
     inkscape:pageshadow="2"
     inkscape:pageopacity="0.0"
     borderopacity="1.0"
     bordercolor="#666666"
     pagecolor="#ffffff"
     id="base">
    <inkscape:grid
       id="grid861"
       type="xygrid" />
  </sodipodi:namedview>
  <metadata
     id="metadata5">
    <rdf:RDF>
      <cc:Work
         rdf:about="">
        <dc:format>image/svg+xml</dc:format>
        <dc:type
           rdf:resource="http://purl.org/dc/dcmitype/StillImage" />
        <dc:title />
      </cc:Work>
    </rdf:RDF>
  </metadata>
  <g
     id="layer1"
     inkscape:groupmode="layer"
     inkscape:label="Layer 1">
    <g
       id="g823"
       inkscape:label="Car_Wars_Expansion_Set_6_The_AADA_Vehicle_Guide_Counters"
       transform="matrix(0.20064797,0,0,-0.18414237,-50.051873,248.56986)">
      <g
         id="g825"
         transform="scale(612,792)" />
    </g>
    <path
       inkscape:connector-curvature="0"
       id="path17"
       d="m 103.56281,59.758372 c -19.134228,0.125302 -41.778537,2.910687 -44.166808,6.476741 -1.418309,2.119077 -3.075688,8.57984 -3.932805,15.330687 -0.45748,3.602888 -1.137315,8.411787 -1.511319,10.687508 -0.373978,2.276002 -0.822343,8.791512 -0.995541,14.479652 -0.365534,12.00006 -1.74597,38.50229 -2.136793,41.02451 -0.146865,0.94634 -0.108024,3.54419 0.08587,5.76902 0.19429,2.22455 0.364182,10.44472 0.376821,18.26713 0.02501,15.12185 1.752035,45.24767 2.988324,52.13547 0.408216,2.27418 1.675375,6.76945 2.815845,9.98965 1.89014,5.33781 2.317671,5.9666 4.837922,7.10322 6.94562,3.13284 25.400267,4.89956 44.585484,4.26844 17.87651,-0.58281 22.93996,-1.26731 29.15733,-3.89631 5.27439,-2.23276 5.8927,-3.2553 6.70259,-11.09583 0.25424,-2.46517 1.09456,-7.96576 1.86629,-12.2229 0.77304,-4.25682 1.33424,-7.98001 1.24831,-8.27479 -0.092,-0.29147 0.22534,-3.01804 0.69166,-6.05207 1.85667,-12.09312 2.48642,-29.06431 1.95762,-52.74292 -0.29236,-13.08123 -0.58108,-26.2653 -0.64406,-29.29866 -0.32274,-15.82476 -1.61512,-33.117596 -2.98997,-39.979348 -1.91564,-9.560086 -4.15956,-16.462439 -5.7724,-17.757919 -0.68823,-0.553063 -3.08947,-1.182256 -5.337,-1.410471 -2.24748,-0.225228 -6.9293,-0.926005 -10.40342,-1.556605 -4.98843,-0.910814 -11.93811,-1.280312 -19.42538,-1.243812 z"
       class="interior" />
    <path
       inkscape:connector-curvature="0"
       id="path4634"
       d="m 103.56281,59.758372 c -19.134228,0.125302 -41.778537,2.910687 -44.166808,6.476741 -1.418309,2.119077 -3.075688,8.57984 -3.932805,15.330687 -0.45748,3.602888 -1.137315,8.411787 -1.511319,10.687508 -0.373978,2.276002 -0.822343,8.791512 -0.995541,14.479652 -0.365534,12.00006 -1.74597,38.50229 -2.136793,41.02451 -0.146865,0.94634 -0.108024,3.54419 0.08587,5.76902 0.19429,2.22455 0.364182,10.44472 0.376821,18.26713 0.02501,15.12185 1.752035,45.24767 2.988324,52.13547 0.408216,2.27418 1.675375,6.76945 2.815845,9.98965 1.89014,5.33781 2.317671,5.9666 4.837922,7.10322 6.94562,3.13284 25.400267,4.89956 44.585484,4.26844 17.87651,-0.58281 22.93996,-1.26731 29.15733,-3.89631 5.27439,-2.23276 5.8927,-3.2553 6.70259,-11.09583 0.25424,-2.46517 1.09456,-7.96576 1.86629,-12.2229 0.77304,-4.25682 1.33424,-7.98001 1.24831,-8.27479 -0.092,-0.29147 0.22534,-3.01804 0.69166,-6.05207 1.85667,-12.09312 2.48642,-29.06431 1.95762,-52.74292 -0.29236,-13.08123 -0.58108,-26.2653 -0.64406,-29.29866 -0.32274,-15.82476 -1.61512,-33.117596 -2.98997,-39.979348 -1.91564,-9.560086 -4.15956,-16.462439 -5.7724,-17.757919 -0.68823,-0.553063 -3.08947,-1.182256 -5.337,-1.410471 -2.24748,-0.225228 -6.9293,-0.926005 -10.40342,-1.556605 -4.98843,-0.910814 -11.93811,-1.280312 -19.42538,-1.243812 z"
       class="outline" />
    <path
       style="image-rendering:auto"
       inkscape:connector-curvature="0"
       class="body"
       id="path4632"
       d="m 95.97353,72.55464 c 16.193,-0.106515 37.84824,1.368016 39.7609,3.132891 0.96013,0.881368 3.4023,13.004826 4.41509,21.905129 1.35121,11.87494 0.8575,57.36308 -0.61379,56.52376 -0.29344,-0.17307 -0.74969,-1.62894 -1.01562,-3.24842 -0.45323,-2.76395 -3.54543,-12.75364 -5.02044,-16.21976 -0.36583,-0.86243 -1.57524,-1.88231 -2.68774,-2.27282 -5.49379,-1.92513 -59.292537,-1.06368 -63.617345,1.025 -1.930398,0.92537 -4.009277,5.69422 -5.2465,12.02571 -1.671048,8.55171 -2.038865,12.86376 -1.258414,14.74202 0.548894,1.32384 0.400051,2.31937 -0.614769,4.13742 l -1.338008,2.39649 -0.808011,-1.9389 c -0.882415,-2.1166 -1.026787,-3.48799 -0.426139,-4.04765 0.212471,-0.19597 0.367642,-9.21803 0.344988,-20.04391 -0.04364,-21.17129 0.674304,-34.33021 2.36958,-43.40957 0.586217,-3.14003 1.474014,-8.605726 1.972694,-12.145546 0.543893,-3.858739 1.378862,-6.926221 2.086551,-7.661136 1.337236,-1.386358 8.412837,-3.044122 18.258178,-4.273148 3.250255,-0.408339 8.041024,-0.597705 13.438705,-0.626839 z" />
    <path
       inkscape:connector-curvature="0"
       class="window"
       id="windshield"
       d="m 97.99978,134.50909 c 13.80596,-0.058 28.3485,0.48509 30.52633,1.40531 2.91842,1.22767 4.28875,4.56098 5.74555,13.9709 1.05242,6.79622 0.31742,7.89083 -3.57693,5.32851 -4.06004,-2.67031 -21.61808,-3.47082 -43.03313,-1.96167 -12.751811,0.89688 -15.615108,1.48317 -18.557909,3.79327 -2.625541,2.05965 -3.524797,2.13523 -4.541546,0.37671 -0.425083,-0.72776 -0.722853,-1.42897 -0.661667,-1.55005 0.06603,-0.15193 0.227615,-1.14732 0.369627,-2.28623 0.815319,-6.52519 2.806202,-14.81744 3.87586,-16.13965 1.048256,-1.29392 2.360323,-1.63495 8.628433,-2.22818 C 81.697747,134.74685 89.716384,134.53134 98,134.5 Z" />
    <path
       inkscape:connector-curvature="0"
       id="path4628"
       d="m 113.33162,155.28355 c 6.38162,-0.036 8.70993,0.4641 13.65054,1.69089 2.52319,0.62573 3.50413,4.34185 2.89453,10.95795 -0.31476,3.41329 -0.58928,8.78591 -0.61126,11.93918 -0.0173,3.1527 -0.37626,6.32082 -0.78904,7.03994 -2.21386,3.8596 -15.16614,6.33768 -33.02987,6.32054 -12.998408,-0.0235 -18.188082,-0.72618 -23.818708,-3.27932 l -2.67853,-1.2172 -0.158396,-12.87136 c -0.146705,-12.03628 -0.05862,-13.02181 1.410108,-15.18178 0.862625,-1.2749 2.069471,-2.69771 2.682716,-3.17253 0.778539,-0.6037 7.755853,-1.12263 23.14304,-1.71184 8.18759,-0.32065 13.47551,-0.50892 17.3045,-0.52316 z"
       class="body" />
    <path
       inkscape:connector-curvature="0"
       id="path4626"
       d="m 139.22345,158.87479 c 0.2653,0.0185 0.5228,0.1566 0.67289,0.36556 0.24026,0.36202 0.11853,0.82842 -0.26646,1.05868 -0.38604,0.22522 -0.89972,0.14414 -1.13949,-0.24433 -0.24029,-0.36196 -0.11854,-0.82942 0.26641,-1.05839 0.14506,-0.11272 0.30756,-0.14874 0.46754,-0.14719 z"
       class="outline" />
    <path
       inkscape:connector-curvature="0"
       id="path4624"
       d="m 140.1579,162.34688 c 0.0492,0.002 0.0991,0.0348 0.15591,0.0736 0.4096,0.22807 0.74631,1.35568 0.74885,2.49291 0.004,1.20338 -0.30547,1.89066 -0.73884,1.64379 -0.40952,-0.2285 -0.7462,-1.35564 -0.74904,-2.49293 -0.002,-1.05303 0.23324,-1.71064 0.58319,-1.69305 z"
       class="outline" />
    <path
       inkscape:connector-curvature="0"
       id="rightWindow"
       d="m 134.14355,165.86694 c 0.2885,0.0436 0.56029,0.21271 0.87859,0.56796 0.6177,0.68211 0.64251,3.39236 0.092,10.17725 -0.81532,10.1055 -1.051,11.26273 -2.16778,10.62555 -1.22368,-0.69622 -1.02338,-19.99393 0.21741,-20.95388 0.38329,-0.29413 0.68807,-0.42991 0.97615,-0.41658 z"
       class="window" />
    <path
       inkscape:connector-curvature="0"
       id="leftWindow"
       d="m 63.157751,167.61759 c 0.578418,0.11115 1.158699,3.71789 1.259322,10.18737 0.0922,5.89491 -0.539239,8.57788 -1.633554,6.94351 -0.682211,-1.02375 -0.990993,-5.37944 -0.744192,-10.51801 0.219837,-4.5839 0.668348,-6.67416 1.118424,-6.61287 z"
       class="window" />
    <path
       inkscape:connector-curvature="0"
       id="path4618"
       d="m 140.37224,168.95282 c 0.3168,-0.15995 0.76609,2.24586 1.05521,5.71693 0.3024,3.63796 0.32203,6.95697 0.0394,7.37793 -0.27825,0.42591 -0.64169,4.08309 -0.8074,8.13703 -0.62311,15.29937 -3.22377,35.26146 -4.84464,37.19155 -0.93069,1.10863 -4.88576,2.08956 -12.16934,3.01985 -11.28776,1.44092 -14.12891,1.59939 -28.48163,1.58348 -14.876122,-0.0301 -21.914786,-0.93097 -30.978462,-4.04923 -3.057474,-1.049 -3.125413,-1.14201 -3.571933,-4.95482 -0.250394,-2.13675 -0.809302,-5.74543 -1.242555,-8.01946 -0.986393,-5.17649 -1.911263,-45.71173 -1.024877,-44.91879 0.355391,0.32289 0.666394,2.48819 0.690787,4.82363 0.106681,10.22256 1.48085,15.61655 4.190666,16.44873 0.60468,0.18058 0.470113,0.83424 -0.443877,2.13915 -1.38052,1.96483 -1.315671,4.76926 0.293741,12.6528 1.114824,5.46044 5.221238,16.76235 6.865878,18.89592 1.869141,2.42512 5.47619,3.13553 20.756691,4.08684 14.040361,0.87503 12.648221,0.87503 23.046741,0.0754 9.07415,-0.71758 12.61209,-1.83145 14.24333,-4.5051 1.63156,-2.67383 3.53575,-8.10614 6.56778,-18.73765 2.48772,-8.72291 2.80476,-10.58322 2.0782,-12.20103 -0.6968,-1.55161 -0.63632,-2.20403 0.32528,-3.48362 0.78107,-1.03684 1.17972,-3.0578 1.17333,-5.94298 -0.013,-4.74986 1.26463,-13.70661 2.17277,-15.24899 0.0161,-0.0563 0.0396,-0.0783 0.0659,-0.0955 z"
       class="body" />
    <path
       inkscape:connector-curvature="0"
       id="rearWindow"
       d="m 126.20427,192.8221 c 1.48247,0.0267 2.38881,0.40932 3.54013,1.12878 1.83157,1.15149 2.4696,2.06372 2.47673,3.54027 0.0371,6.49564 -4.45466,22.26588 -7.0953,24.93932 -0.87138,0.8784 -2.87538,1.91793 -4.45193,2.30134 -4.44341,1.07916 -27.60646,1.71836 -31.70861,0.87603 -1.938908,-0.39754 -5.769188,-0.74884 -8.512003,-0.77689 -2.742842,-0.0505 -5.54775,-0.32657 -6.232868,-0.67023 -1.834298,-0.89607 -4.745638,-7.04106 -6.496624,-13.70753 -0.845469,-3.21957 -1.759512,-7.57781 -2.030437,-9.68561 -0.442779,-3.44351 -0.304258,-4.03672 1.366328,-5.84695 l 1.858797,-2.01422 5.83848,1.35017 c 4.915606,1.13368 8.365647,1.3445 21.810047,1.32128 9.61519,-0.0379 17.29933,-0.35176 19.31066,-0.82932 5.56109,-1.33011 8.42032,-1.93969 10.32644,-1.92144 z"
       class="window" />
  </g>
</svg>
