<?xml version="1.0" encoding="UTF-8" standalone="no"?>
<svg
   xmlns:dc="http://purl.org/dc/elements/1.1/"
   xmlns:cc="http://creativecommons.org/ns#"
   xmlns:rdf="http://www.w3.org/1999/02/22-rdf-syntax-ns#"
   xmlns:svg="http://www.w3.org/2000/svg"
   xmlns="http://www.w3.org/2000/svg"
   xmlns:sodipodi="http://sodipodi.sourceforge.net/DTD/sodipodi-0.dtd"
   xmlns:inkscape="http://www.inkscape.org/namespaces/inkscape"
   width="30px"
   height="60px"
   viewBox="0 0 210 297"
   version="1.1"
   id="X-10"
   inkscape:version="1.0 (4035a4fb49, 2020-05-01)"
   sodipodi:docname="car-X-10.svg">
  <defs
     id="defs2" />
  <style
     id="styles">
    .body {
      fill-opacity:1;
      stroke-width:0.71780843
    }
    .interior {
      fill:tan;
      stroke-width:0.71780843
    }
    .outline {
      fill:#000000;
      stroke-width:0.71780843
    }
    .window {
      fill:silver;
      fill-opacity:0.8;
      stroke-width:0.71780843
    }
  </style>
  <sodipodi:namedview
     id="base"
     pagecolor="#ffffff"
     bordercolor="#666666"
     borderopacity="1.0"
     inkscape:pageopacity="0.0"
     inkscape:pageshadow="2"
     inkscape:zoom="33.058631"
     inkscape:cx="23.302573"
     inkscape:cy="22.607432"
     inkscape:document-units="mm"
     inkscape:current-layer="layer1"
     showgrid="true"
     inkscape:window-width="1920"
     inkscape:window-height="1013"
     inkscape:window-x="-9"
     inkscape:window-y="-9"
     inkscape:window-maximized="1"
     inkscape:document-rotation="0">
    <inkscape:grid
       type="xygrid"
       id="grid861" />
  </sodipodi:namedview>
  <metadata
     id="metadata5">
    <rdf:RDF>
      <cc:Work
         rdf:about="">
        <dc:format>image/svg+xml</dc:format>
        <dc:type
           rdf:resource="http://purl.org/dc/dcmitype/StillImage" />
        <dc:title />
      </cc:Work>
    </rdf:RDF>
  </metadata>
  <g
     inkscape:label="Layer 1"
     inkscape:groupmode="layer"
     id="layer1">
    <g
       transform="matrix(0.20064797,0,0,-0.18414237,-50.051873,248.56986)"
       inkscape:label="Car_Wars_Expansion_Set_6_The_AADA_Vehicle_Guide_Counters"
       id="g823">
      <g
         transform="scale(612,792)"
         id="g825" />
    </g>
    <path
       class="interior"
       d="m 110.20959,50.499575 c -20.151715,0.135563 -44.000163,3.149051 -46.515433,7.00714 -1.493729,2.292614 -3.239242,9.282467 -4.141937,16.586161 -0.481807,3.897939 -1.197793,9.100652 -1.591685,11.562739 -0.393865,2.462385 -0.866072,9.511482 -1.04848,15.665435 -0.384972,12.98277 -1.838814,41.65535 -2.25042,44.38412 -0.154675,1.02385 -0.113768,3.83443 0.09044,6.24147 0.204621,2.40672 0.383547,11.30006 0.396858,19.76308 0.02634,16.36021 1.845202,48.95312 3.147232,56.40499 0.429924,2.46042 1.764465,7.32381 2.965581,10.80773 1.990651,5.77494 2.440916,6.45522 5.095185,7.68492 7.314962,3.3894 26.750957,5.3008 46.956369,4.618 18.82711,-0.63055 24.15982,-1.37109 30.70781,-4.21539 5.55486,-2.41561 6.20605,-3.52189 7.05901,-12.0045 0.26775,-2.66705 1.15276,-8.6181 1.96553,-13.22388 0.81415,-4.60541 1.40519,-8.63351 1.31469,-8.95243 -0.0969,-0.31534 0.23732,-3.26519 0.72844,-6.54768 1.9554,-13.08347 2.61864,-31.44448 2.06172,-57.06221 -0.30791,-14.15248 -0.61198,-28.41624 -0.67831,-31.698 -0.3399,-17.1207 -1.70101,-35.829694 -3.14897,-43.253374 -2.0175,-10.34299 -4.38075,-17.810595 -6.07935,-19.212166 -0.72483,-0.598355 -3.25376,-1.279075 -5.6208,-1.525978 -2.367,-0.243674 -7.29778,-1.001839 -10.95664,-1.68408 C 125.41274,50.860267 118.0935,50.460511 110.20808,50.5 Z"
       id="path17"
       inkscape:connector-curvature="0" />
    <path
       class="outline"
       d="m 110.20959,50.499575 c -20.151715,0.135563 -44.000163,3.149051 -46.515433,7.00714 -1.493729,2.292614 -3.239242,9.282467 -4.141937,16.586161 -0.481807,3.897939 -1.197793,9.100652 -1.591685,11.562739 -0.393865,2.462385 -0.866072,9.511482 -1.04848,15.665435 -0.384972,12.98277 -1.838814,41.65535 -2.25042,44.38412 -0.154675,1.02385 -0.113768,3.83443 0.09044,6.24147 0.204621,2.40672 0.383547,11.30006 0.396858,19.76308 0.02634,16.36021 1.845202,48.95312 3.147232,56.40499 0.429924,2.46042 1.764465,7.32381 2.965581,10.80773 1.990651,5.77494 2.440916,6.45522 5.095185,7.68492 7.314962,3.3894 26.750957,5.3008 46.956369,4.618 18.82711,-0.63055 24.15982,-1.37109 30.70781,-4.21539 5.55486,-2.41561 6.20605,-3.52189 7.05901,-12.0045 0.26775,-2.66705 1.15276,-8.6181 1.96553,-13.22388 0.81415,-4.60541 1.40519,-8.63351 1.31469,-8.95243 -0.0969,-0.31534 0.23732,-3.26519 0.72844,-6.54768 1.9554,-13.08347 2.61864,-31.44448 2.06172,-57.06221 -0.30791,-14.15248 -0.61198,-28.41624 -0.67831,-31.698 -0.3399,-17.1207 -1.70101,-35.829694 -3.14897,-43.253374 -2.0175,-10.34299 -4.38075,-17.810595 -6.07935,-19.212166 -0.72483,-0.598355 -3.25376,-1.279075 -5.6208,-1.525978 -2.367,-0.243674 -7.29778,-1.001839 -10.95664,-1.68408 C 125.41274,50.860267 118.0935,50.460511 110.20808,50.5 Z"
       id="path4634"
       inkscape:connector-curvature="0" />
    <path
       d="m 102.21674,64.343766 c 17.05408,-0.115238 39.86087,1.480047 41.87523,3.389452 1.01119,0.953547 3.58323,14.069829 4.64987,23.698999 1.42306,12.847413 0.9031,62.060713 -0.64643,61.152663 -0.30904,-0.18725 -0.78955,-1.76235 -1.06962,-3.51445 -0.47733,-2.99029 -3.73397,-13.79807 -5.28741,-17.54804 -0.38528,-0.93306 -1.65901,-2.03646 -2.83067,-2.45895 -5.78592,-2.08278 -62.445486,-1.15079 -67.000271,1.10894 -2.033049,1.00115 -4.222475,6.16054 -5.525489,13.01054 -1.759908,9.25202 -2.147284,13.9172 -1.325332,15.94928 0.578082,1.43226 0.421324,2.50931 -0.64746,4.47624 L 63,166.20119 62.149022,164.10351 c -0.929339,-2.28994 -1.081388,-3.77363 -0.4488,-4.37913 0.22377,-0.21201 0.387192,-9.97292 0.363334,-21.68536 -0.04596,-22.90507 0.710161,-37.14161 2.495585,-46.964507 0.61739,-3.397177 1.552396,-9.310471 2.077594,-13.140177 0.572816,-4.174743 1.452185,-7.49343 2.197506,-8.288529 1.408346,-1.499891 8.8602,-3.293413 19.229079,-4.623088 3.423092,-0.44178 8.468616,-0.646653 14.15333,-0.678173 z"
       id="path4632"
       class="body"
       inkscape:connector-curvature="0"
       style="image-rendering:auto" />
    <path
       d="m 104.35074,131.37185 c 14.54011,-0.0627 29.85597,0.52481 32.1496,1.52039 3.07361,1.32821 4.51681,4.93449 6.05108,15.11502 1.10838,7.35278 0.3343,8.53702 -3.76714,5.76488 -4.27593,-2.889 -22.76765,-3.75506 -45.321467,-2.12232 -13.429904,0.97033 -16.445461,1.60463 -19.544749,4.1039 -2.765157,2.22833 -3.712232,2.3101 -4.783048,0.40757 -0.447687,-0.78736 -0.761292,-1.546 -0.696852,-1.67699 0.06954,-0.16437 0.239719,-1.24128 0.389282,-2.47346 0.858675,-7.05955 2.955426,-16.03087 4.081964,-17.46137 1.103998,-1.39988 2.485836,-1.76884 9.087261,-2.41065 5.185154,-0.50974 13.630192,-0.7429 22.354299,-0.77681 z"
       id="windshield"
       class="window"
       inkscape:connector-curvature="0" />
    <path
       class="body"
       d="m 120.49787,153.84759 c 6.72097,-0.039 9.17309,0.5021 14.37642,1.82936 2.65737,0.67697 3.69047,4.69741 3.04845,11.85533 -0.3315,3.69281 -0.62061,9.50541 -0.64376,12.91691 -0.0182,3.41089 -0.39627,6.83845 -0.831,7.61646 -2.33158,4.17567 -15.97262,6.85669 -34.78627,6.83815 -13.689619,-0.0255 -19.15526,-0.78565 -25.085302,-3.54788 l -2.820964,-1.31688 -0.166819,-13.92543 c -0.154506,-13.02196 -0.06174,-14.0882 1.485093,-16.42506 0.908496,-1.3793 2.179517,-2.91863 2.825372,-3.43234 0.819939,-0.65313 8.16828,-1.21456 24.3737,-1.85203 8.62298,-0.3469 14.19209,-0.55059 18.22469,-0.56599 z"
       id="path4628"
       inkscape:connector-curvature="0" />
    <path
       class="outline"
       d="m 147.76653,157.73292 c 0.27941,0.0201 0.5506,0.16943 0.70867,0.3955 0.25304,0.39167 0.12483,0.89626 -0.28063,1.14538 -0.40657,0.24366 -0.94756,0.15595 -1.20008,-0.26435 -0.25307,-0.39159 -0.12485,-0.89733 0.28057,-1.14505 0.15278,-0.12196 0.32392,-0.16093 0.4924,-0.15924 z"
       id="path4626"
       inkscape:connector-curvature="0" />
    <path
       class="outline"
       d="m 148.75067,161.48936 c 0.0518,0.002 0.10437,0.0376 0.1642,0.0796 0.43138,0.24674 0.786,1.4667 0.78867,2.69706 0.004,1.30193 -0.32171,2.0455 -0.77813,1.7784 -0.4313,-0.2472 -0.78588,-1.46666 -0.78887,-2.69708 -0.002,-1.13926 0.24564,-1.85073 0.6142,-1.8317 z"
       id="path4624"
       inkscape:connector-curvature="0" />
    <path
       class="window"
       d="m 142.4165,165.29768 c 0.30384,0.0472 0.59008,0.23013 0.92531,0.61447 0.65055,0.73797 0.67667,3.67017 0.0969,11.01069 -0.85868,10.93308 -1.10689,12.18507 -2.28305,11.49571 -1.28875,-0.75324 -1.0778,-21.63129 0.22897,-22.66985 0.40367,-0.31822 0.72466,-0.46512 1.02806,-0.4507 z"
       id="rightWindow"
       inkscape:connector-curvature="0" />
    <path
       class="window"
       d="m 67.655941,167.19169 c 0.609177,0.12026 1.220315,4.02237 1.326289,11.02164 0.0971,6.37767 -0.567914,9.28035 -1.720421,7.51215 -0.718488,-1.1076 -1.04369,-5.81998 -0.783765,-11.37936 0.231527,-4.9593 0.703888,-7.22073 1.177897,-7.15443 z"
       id="leftWindow"
       inkscape:connector-curvature="0" />
    <path
       class="body"
       d="m 148.97641,168.63627 c 0.33364,-0.17305 0.80682,2.42978 1.11132,6.1851 0.31848,3.93589 0.33915,7.5267 0.0415,7.98214 -0.29304,0.46079 -0.67581,4.41746 -0.85033,8.8034 -0.65625,16.55228 -3.3952,38.14911 -5.10226,40.23726 -0.98018,1.19942 -5.14557,2.26069 -12.81646,3.26716 -11.888,1.55892 -14.88023,1.73036 -29.99618,1.71315 -15.667174,-0.0325 -23.080127,-1.00721 -32.625776,-4.38083 -3.220059,-1.1349 -3.29161,-1.23553 -3.761875,-5.36058 -0.263709,-2.31174 -0.852337,-6.21594 -1.308629,-8.6762 -1.038846,-5.60041 -2.012897,-49.45519 -1.079376,-48.59731 0.374289,0.34932 0.70183,2.69194 0.72752,5.21865 0.112354,11.0597 1.559596,16.89543 4.41351,17.79576 0.636835,0.19536 0.495112,0.90255 -0.46748,2.31432 -1.453931,2.12574 -1.385634,5.15983 0.309361,13.68898 1.174106,5.90761 5.498883,18.13507 7.230979,20.44336 1.968535,2.62372 5.767393,3.39232 21.860454,4.42153 14.786972,0.94668 13.320802,0.94668 24.272282,0.0815 9.55668,-0.77635 13.28275,-1.98143 15.00073,-4.87404 1.71832,-2.8928 3.72377,-8.76998 6.91703,-20.27213 2.62001,-9.43725 2.95391,-11.44991 2.18871,-13.20021 -0.73385,-1.67867 -0.67015,-2.38452 0.34258,-3.7689 0.82261,-1.12175 1.24246,-3.30821 1.23573,-6.42966 -0.0137,-5.13885 1.33187,-14.82909 2.28831,-16.49779 0.0169,-0.0609 0.0417,-0.0847 0.0694,-0.10338 z"
       id="path4618"
       inkscape:connector-curvature="0" />
    <path
       class="window"
       d="m 134.05504,194.46028 c 1.5613,0.0289 2.51584,0.44283 3.72838,1.22121 1.92896,1.24579 2.60092,2.23272 2.60843,3.8302 0.0391,7.02758 -4.69154,24.08929 -7.4726,26.98167 -0.91772,0.95033 -3.02828,2.075 -4.68867,2.4898 -4.67969,1.16754 -29.074463,1.85909 -33.394752,0.94778 -2.042012,-0.4301 -6.075972,-0.81017 -8.964639,-0.84052 -2.888696,-0.0546 -5.842758,-0.35332 -6.564308,-0.72511 -1.93184,-0.96946 -4.997994,-7.61768 -6.842091,-14.83008 -0.890427,-3.48324 -1.853076,-8.19838 -2.138407,-10.4788 -0.466325,-3.72551 -0.320438,-4.36729 1.438984,-6.32577 l 1.95764,-2.17917 6.148949,1.46073 c 5.176999,1.22653 8.810501,1.45462 22.969824,1.42949 10.12649,-0.041 18.21924,-0.38057 20.33753,-0.89723 5.8568,-1.43904 8.86808,-2.09854 10.87556,-2.07879 z"
       id="rearWindow"
       inkscape:connector-curvature="0" />
  </g>
</svg>
