<?xml version="1.0" encoding="UTF-8" standalone="no"?>
<svg
   xmlns:dc="http://purl.org/dc/elements/1.1/"
   xmlns:cc="http://creativecommons.org/ns#"
   xmlns:rdf="http://www.w3.org/1999/02/22-rdf-syntax-ns#"
   xmlns:svg="http://www.w3.org/2000/svg"
   xmlns="http://www.w3.org/2000/svg"
   xmlns:sodipodi="http://sodipodi.sourceforge.net/DTD/sodipodi-0.dtd"
   xmlns:inkscape="http://www.inkscape.org/namespaces/inkscape"
   version="1.1"
   id="YellowJacket"
   width="30px"
   height="60px"
   viewBox="0 0 200 300"
   sodipodi:docname="yellowJacket.svg"
   inkscape:version="1.0 (4035a4fb49, 2020-05-01)">
  <metadata
     id="metadata16">
    <rdf:RDF>
      <cc:Work
         rdf:about="">
        <dc:format>image/svg+xml</dc:format>
        <dc:type
           rdf:resource="http://purl.org/dc/dcmitype/StillImage" />
        <dc:title />
      </cc:Work>
    </rdf:RDF>
  </metadata>
  <defs
     id="defs14" />
  <style
     id="styles">
    .body {
      fill-opacity:1;
      stroke-width:0.71780843
    }
    .interior {
      fill:tan;
      stroke-width:0.71780843
    }
    .outline {
      fill:#000000;
      stroke-width:0.71780843
    }
    .window {
      fill:silver;
      fill-opacity:0.8;
      stroke-width:0.71780843
    }
  </style>
  <sodipodi:namedview
     inkscape:document-rotation="0"
     pagecolor="#ffffff"
     bordercolor="#666666"
     borderopacity="1"
     objecttolerance="10"
     gridtolerance="10"
     guidetolerance="10"
     inkscape:pageopacity="0"
     inkscape:pageshadow="2"
     inkscape:window-width="1920"
     inkscape:window-height="1013"
     id="namedview12"
     showgrid="false"
     inkscape:zoom="31.999999"
     inkscape:cx="27.232593"
     inkscape:cy="28.521731"
     inkscape:window-x="-9"
     inkscape:window-y="-9"
     inkscape:window-maximized="1"
     inkscape:current-layer="g18" />
  <g
     inkscape:groupmode="layer"
     inkscape:label="Layer1"
     id="g18">
    <path
       sodipodi:nodetypes="cccssccccsccccccccccccccccccccccccccccccccccccccscccccccccccccccccccscccccccccccccccccccccccccccc"
       class="outline"
       d="m 54.342527,238.02974 c 21.979168,0 40.165395,0.74735 62.126893,1.28396 6.4091,0.15646 20.381,2.40246 25.66991,-1.45984 3.73955,-2.73217 2.24766,-10.15162 2.24766,-13.99192 v -38.79103 c 0,-28.63427 1.53816,-57.00602 -3.62597,-85.340301 -1.50171,-8.232744 -4.65277,-18.048652 -9.94168,-25.004662 -3.52642,-4.640446 -60.545674,-1.586258 -68.645256,1.345555 -4.396355,11.907696 -1.717792,-0.148871 -8.927039,36.589458 -3.281036,15.76468 -2.636555,31.86113 -2.804308,47.84228 l -0.731211,69.65959 m 63.828104,-151.120766 2.86457,9.61439 13.96127,0.729883 1.40214,56.893523 -1.64588,2.24769 c -8.58852,-11.95176 -50.410475,-10.06645 -64.499039,1.29304 l 0.243735,-66.899425 h 1.402146 l 2.377099,7.028324 10.561409,-1.192861 1.413698,-8.938742 31.918852,-0.775822 m -36.455985,2.022919 c 1.76447,6.110878 0.506027,6.091305 -6.279554,6.578778 0.431442,-5.13593 -1.309037,-5.013772 3.842188,-7.028318 m 46.268671,-0.601018 c 4.60482,-1.371912 6.42115,5.553581 2.07518,6.928081 -4.69833,1.484401 -6.43139,-5.631168 -2.07518,-6.928081 m 10.85266,1.613703 -1.40214,3.879108 h -1.40216 v -3.879108 h 2.8043 M 89.57753,94.471846 C 67.981432,99.025919 78.121097,127.47138 96.097128,122.36647 110.61754,118.24299 108.70415,90.437575 89.57753,94.471846 m 13.23235,11.441134 c 1.12292,9.63721 -1.13147,17.52858 -14.875953,12.59443 -4.196055,0.29476 -7.287508,-5.5984 -8.522792,-13.94304 m -19.153326,2.92445 v 43.96317 C 48.754685,147.93107 57.155801,100.1218 61.72023,92.204548 m 75.65599,15.284272 2.80432,40.08408 h -4.20646 c -0.0982,-11.95928 -6.55621,-44.89691 -0.30401,-55.81789 m -33.34767,52.3073 c 6.78655,-0.73574 19.37592,-0.0347 24.41541,5.04561 5.42943,5.47342 1.87296,19.04467 -6.18773,20.07781 -10.84279,-2.49442 -22.630569,-4.72838 -33.651363,-2.64918 -12.739913,6.41313 -10.718058,3.71747 -14.837298,1.57233 -8.478824,-4.41443 -5.438393,-15.52159 0.877464,-19.87137 7.651268,-5.26911 20.317757,-3.19121 29.383517,-4.1752 m 37.85814,8.68272 c 1.85644,10.20463 4.1167,33.86071 -4.20646,41.37711 l 1.40214,-41.37711 h 2.80432 m -79.922731,41.37711 c -10.484319,-5.33117 -7.157121,-34.74867 -7.071031,-44.46582 12.326467,3.68256 7.072156,34.97494 7.071031,44.46582 m 71.509801,-32.32586 v 33.6189 c -13.47371,-3.92436 -6.76777,-26.36239 0,-33.6189 m -36.455969,6.83498 c 6.845999,-0.77323 19.425279,-0.72539 23.797609,5.34412 3.81274,5.29239 3.93066,26.42833 -4.24963,27.7136 -7.41922,1.16502 -32.21237,3.28302 -38.137307,-1.13787 -3.324089,-2.48004 -2.436944,-8.14482 -2.44297,-11.60111 -0.02565,-14.72508 5.222177,-18.53306 21.032298,-20.31874 m -25.807581,2.84126 c 8.498111,1.61097 2.127667,21.79146 -5.304301,26.23433 l 1.041667,-30.19266 m -4.983617,61.51989 c -7.115019,1.83365 -9.362102,-26.08435 -7.059111,-34.7278 7.059111,-0.18414 7.052245,13.58798 7.059111,15.33228 3.025988,8.05123 -4.09203,18.0361 -4.387262,19.84506 m 75.897063,-30.18933 -2.92484,12.0288 -7.80225,-8.37693 c 1.99483,-9.4342 2.87643,-9.76578 10.72709,-3.65187 m 8.41293,-1.29305 v 31.03284 c -7.62774,-4.56054 -5.14591,-23.7259 -2.80432,-31.03284 h 2.80432 m -67.182817,6.91225 -7.618774,5.67972 1.889623,-11.29892 3.779254,-1.12386 M 123.3547,213.51767 H 72.87719 c 0.120533,-8.60418 56.72688,-9.35465 50.47751,0 m 8.41291,3.8791 v 14.22338 H 65.866426 v -14.22338 z"
       id="path22" />
    <path
       sodipodi:nodetypes="sssscsssscsssccsssssssssscss"
       class="body"
       d="m 65.920756,131.87414 c 0.257968,-9.30171 0.469027,-24.04095 0.469027,-32.753871 0,-8.712904 0.265747,-15.559915 0.590555,-15.215574 0.324804,0.344331 0.985557,1.913285 1.468341,3.48653 l 0.877783,2.86045 4.391597,-0.43649 c 6.682849,-0.664246 6.747856,-0.701557 7.254325,-4.164263 0.816952,-5.585424 0.254172,-5.230401 9.06086,-5.716159 4.380573,-0.241627 11.448596,-0.344331 15.706706,-0.228237 l 7.74204,0.211048 1.22062,4.14194 c 0.67135,2.278067 1.41336,4.320749 1.64891,4.539304 0.23553,0.218535 3.43733,0.543397 7.11507,0.721883 l 6.6868,0.324507 0.46044,26.110662 c 0.25328,14.36086 0.60427,27.00035 0.78005,28.08776 0.54686,3.38312 -0.54887,4.06585 -3.3472,2.08551 -5.29435,-3.74673 -14.15068,-5.71019 -25.75642,-5.71019 -12.074805,0 -26.344017,2.98662 -33.058335,6.91927 -1.547649,0.90648 -3.031321,1.64814 -3.29705,1.64814 -0.26573,0 -0.272083,-7.61049 -0.01409,-16.91221 z m 32.423235,-10.2892 c 4.678529,-2.29551 7.427719,-7.24189 7.427719,-13.36407 0,-3.71923 -0.37049,-5.35255 -1.79811,-7.9265 -2.5282,-4.558321 -5.430907,-6.211344 -10.87521,-6.193164 -12.870328,0.04324 -19.755071,10.777124 -13.822136,21.550374 3.717931,6.75116 12.090806,9.35655 19.067737,5.93336 z"
       id="path1472" />
    <path
       sodipodi:nodetypes="ssssscs"
       class="body"
       d="m 58.085214,149.23365 c -0.856221,-1.015 -1.935627,-3.53268 -2.398679,-5.59483 -1.221116,-5.43812 -0.440105,-23.5788 1.444347,-33.54803 3.07655,-16.275752 3.238437,-15.644706 3.020747,11.77502 -0.110357,13.90013 -0.270174,26.15954 -0.355147,27.24313 l -0.154504,1.97016 z"
       id="path1474" />
    <path
       sodipodi:nodetypes="ssscssscs"
       class="body"
       d="m 57.706417,191.2939 c -1.049745,-1.44988 -2.411087,-4.41552 -3.025203,-6.59032 -1.434217,-5.07907 -2.134261,-18.40928 -1.452317,-27.65494 l 0.532903,-7.22497 2.355465,2.38476 c 1.295505,1.31161 2.744204,3.52487 3.219333,4.91835 1.063453,3.11894 1.632533,24.27346 0.848219,31.53099 l -0.569768,5.27225 z"
       id="path1476" />
    <path
       sodipodi:nodetypes="ssssscs"
       class="body"
       d="m 55.511941,223.57827 c -1.878421,-5.32276 -2.682589,-11.98294 -2.46579,-20.42181 0.190269,-7.40619 0.29338,-7.90838 1.623762,-7.90838 2.406164,0 4.444092,4.96546 5.364858,13.07159 0.860841,7.57858 0.544234,10.00994 -2.038093,15.65146 l -1.32475,2.89412 z"
       id="path1478" />
    <path
       sodipodi:nodetypes="ccccccccc"
       class="body"
       d="m 66.389785,224.57498 v -6.59031 h 32.673577 32.673588 v 6.59031 6.59033 H 99.063362 66.389785 Z"
       id="path1480" />
    <path
       sodipodi:nodetypes="sssssss"
       class="body"
       d="m 137.32016,224.85001 c -1.88233,-3.94817 -2.4336,-11.25769 -1.3686,-18.1466 1.1596,-7.50082 1.46363,-8.48969 2.61019,-8.48969 0.81511,0 0.98844,2.60033 0.98844,14.82821 0,8.15552 -0.1778,14.82822 -0.39509,14.82822 -0.21729,0 -1.04304,-1.35906 -1.83496,-3.02014 z"
       id="path1484" />
    <path
       sodipodi:nodetypes="scsssss"
       class="body"
       d="m 136.71076,186.99207 c 8.5e-4,-3.071 0.21207,-12.0465 0.46919,-19.94554 0.40958,-12.58493 0.60618,-14.33709 1.58883,-14.1615 1.65302,0.29535 2.30541,5.11008 2.43609,17.97888 0.11695,11.51717 -0.78843,16.80077 -3.49288,20.38325 -0.89745,1.1888 -1.00277,0.74118 -1.00121,-4.25509 z"
       id="path1486" />
    <path
       sodipodi:nodetypes="sssssss"
       class="body"
       d="m 135.99638,144.3379 c -0.002,-1.72172 -0.51482,-7.72716 -1.14116,-13.3454 -1.8065,-16.20386 -1.56473,-38.499443 0.39573,-36.490993 0.64583,0.661652 1.75906,12.032153 3.24999,33.195833 1.42919,20.28707 1.44816,19.77095 -0.72648,19.77095 -1.64457,0 -1.77591,-0.23124 -1.77806,-3.13039 z"
       id="path1488" />
    <path
       sodipodi:nodetypes="sssss"
       class="body"
       d="m 119.80399,86.046547 c -0.46879,-0.434961 -0.85236,-1.561904 -0.85236,-2.50432 0,-3.418681 3.40675,-4.459539 5.39253,-1.647578 1.07781,1.526232 1.07781,1.768925 0,3.295157 -1.25069,1.771039 -3.16535,2.132342 -4.54017,0.856741 z"
       id="path1490" />
    <path
       sodipodi:nodetypes="sssss"
       class="body"
       d="m 71.36185,84.923768 c 0,-2.188954 0.28838,-2.650518 2.088018,-3.34216 2.485369,-0.955173 3.308294,-0.601052 3.766025,1.620591 0.443281,2.151575 -0.680508,3.377189 -3.545584,3.866786 -2.278615,0.389356 -2.308459,0.361624 -2.308459,-2.145217 z"
       id="path1492" />
    <path
       sodipodi:nodetypes="sssscscss"
       class="body"
       d="m 89.474379,118.77243 c -4.656871,-1.17839 -6.91369,-3.58942 -8.522918,-9.10532 -0.70534,-2.41768 -1.153843,-4.48047 -0.996675,-4.584 0.157175,-0.10354 5.319975,0.0879 11.472904,0.42542 l 11.18715,0.61364 v 3.55942 c 0,6.28369 -2.879431,10.17339 -7.438569,10.04846 -1.182727,-0.0322 -3.748581,-0.46333 -5.701892,-0.95761 z"
       id="path1494" />
    <path
       sodipodi:nodetypes="ssssssssss"
       class="body"
       d="m 82.226913,202.13531 c -3.86041,-0.70754 -5.655053,-1.62615 -6.725292,-3.44242 -1.069982,-1.81582 -0.947448,-14.57353 0.177688,-18.49831 1.752327,-6.11268 6.183694,-9.03851 16.200204,-10.69624 9.892397,-1.6372 19.922397,-0.72701 24.141757,2.19079 3.97652,2.74986 4.70612,4.97188 4.70612,14.33251 0,7.62687 -0.1757,8.87247 -1.60048,11.34627 -0.88026,1.52836 -2.17073,3.062 -2.8677,3.40809 -3.40425,1.6904 -27.068688,2.63561 -34.032275,1.35931 z"
       id="path1496" />
    <path
       sodipodi:nodetypes="csssc"
       class="window"
       d="m 66.591898,204.9688 c 1.006951,-6.75753 3.818356,-8.28379 5.297759,-2.87607 0.724682,2.64898 0.702101,2.69751 -2.326013,4.99973 -1.681785,1.27865 -3.187577,2.3248 -3.346205,2.3248 -0.158628,0 0.0099,-2.00181 0.374459,-4.44846 z"
       id="path1498" />
    <path
       sodipodi:nodetypes="sssscs"
       class="window"
       d="m 125.16671,206.889 c -3.62542,-3.88542 -4.00376,-5.34184 -2.3447,-9.02596 1.22795,-2.72679 2.05733,-2.81849 5.55372,-0.61411 3.01848,1.90308 3.10796,2.49442 1.34994,8.9227 l -1.18505,4.33325 z"
       id="path1500" />
    <path
       sodipodi:nodetypes="ccsccssc"
       class="body"
       d="m 129.02059,83.635309 v -1.86402 h 1.28251 c 0.92027,0 1.24983,0.08224 1.1668,0.291239 -0.0637,0.160171 -0.36741,0.998997 -0.67516,1.86402 -0.48555,1.365055 -0.63967,1.572771 -1.1668,1.572771 -0.59177,0 -0.60735,-0.04797 -0.60735,-1.864026 z"
       id="path1502" />
    <path
       sodipodi:nodetypes="ssssssssssss"
       id="path1535"
       d="m 72.378493,167.98234 c -1.7997,-1.25494 -3.59352,-2.97106 -4.142243,-3.96281 -2.313147,-4.1807 -0.405232,-11.17719 4.037403,-14.8055 4.414901,-3.60568 9.013209,-4.41454 27.741727,-4.87991 15.4413,-0.38365 21.06733,0.57869 25.76753,4.4077 2.36625,1.92764 3.61501,5.54189 3.20094,9.26435 -0.57036,5.12736 -4.83202,10.79169 -8.11933,10.79169 -0.55925,0 -3.50151,-0.51078 -6.53828,-1.13503 -8.12785,-1.67083 -14.705192,-2.29651 -20.935714,-1.99154 -5.163579,0.25275 -5.749021,0.38788 -10.379538,2.39621 -2.699014,1.17061 -5.481235,2.12837 -6.182711,2.12837 -0.741174,0 -2.605062,-0.92717 -4.449784,-2.21353 z"
       class="window" />
    <path
       sodipodi:nodetypes="sssscsss"
       id="path1539"
       d="m 73.516494,212.4859 c 0.343158,-0.97842 4.080561,-2.64194 8.053788,-3.58478 9.20571,-2.18451 27.139668,-2.44255 35.270628,-0.50752 4.44316,1.0574 6.44702,2.15763 6.68981,3.67303 l 0.16046,1.00176 H 98.501677 c -19.925745,0 -25.146824,-0.12174 -24.985206,-0.5825 z"
       class="window" />
    <path
       sodipodi:nodetypes="ssssccss"
       id="path1541"
       d="m 129.34131,194.00654 c -2.28111,-1.29059 -3.62724,-3.30794 -4.56832,-6.84621 -0.7133,-2.68188 -0.7497,-3.73831 -0.25383,-7.36808 0.6191,-4.53184 2.17802,-9.31874 4.26341,-13.09142 2.95654,-5.3487 2.84128,-5.83253 2.85887,11.99965 0.009,8.90653 -0.15354,16.19291 -0.36072,16.19195 -0.20717,-8.6e-4 -1.07992,-0.39958 -1.93942,-0.88589 z"
       class="window" />
    <path
       transform="matrix(6.6666667,0,0,6.6666667,0,-50)"
       id="path1745"
       d="M 9.6536145,37.029544 C 9.6499975,36.7313 9.7882294,32.845903 9.8049494,32.77585 l 0.021393,-0.08963 0.3068216,0.284943 c 0.168752,0.156719 0.331876,0.284943 0.362499,0.284943 0.10243,0 0.311468,0.1825 0.392739,0.342881 0.34001,0.670978 -0.04308,2.163486 -0.799211,3.113733 -0.1409372,0.177119 -0.3664956,0.387136 -0.4157831,0.387136 -0.010417,0 -0.019324,-0.03164 -0.019793,-0.07031 z"
       class="window" />
  </g>
</svg>
