<?xml version="1.0" encoding="UTF-8" standalone="no"?>
<svg
   xmlns:dc="http://purl.org/dc/elements/1.1/"
   xmlns:cc="http://creativecommons.org/ns#"
   xmlns:rdf="http://www.w3.org/1999/02/22-rdf-syntax-ns#"
   xmlns:svg="http://www.w3.org/2000/svg"
   xmlns="http://www.w3.org/2000/svg"
   xmlns:sodipodi="http://sodipodi.sourceforge.net/DTD/sodipodi-0.dtd"
   xmlns:inkscape="http://www.inkscape.org/namespaces/inkscape"
   version="1.1"
   id="YellowJacket"
   width="30px"
   height="60px"
   viewBox="0 0 200 300"
   sodipodi:docname="yellowJacket.svg"
   inkscape:version="1.0 (4035a4fb49, 2020-05-01)">
  <metadata
     id="metadata16">
    <rdf:RDF>
      <cc:Work
         rdf:about="">
        <dc:format>image/svg+xml</dc:format>
        <dc:type
           rdf:resource="http://purl.org/dc/dcmitype/StillImage" />
        <dc:title></dc:title>
      </cc:Work>
    </rdf:RDF>
  </metadata>
  <defs
     id="defs14" />
  <style
     id="styles">
    .body {
      fill-opacity:1;
      stroke-width:0.71780843
    }
    .interior {
      fill:tan;
      stroke-width:0.71780843
    }
    .outline {
      fill:#000000;
      stroke-width:0.71780843
    }
    .window {
      fill:silver;
      fill-opacity:0.8;
      stroke-width:0.71780843
    }
  </style>
  <sodipodi:namedview
     inkscape:document-rotation="0"
     pagecolor="#ffffff"
     bordercolor="#666666"
     borderopacity="1"
     objecttolerance="10"
     gridtolerance="10"
     guidetolerance="10"
     inkscape:pageopacity="0"
     inkscape:pageshadow="2"
     inkscape:window-width="1920"
     inkscape:window-height="1013"
     id="namedview12"
     showgrid="true"
     inkscape:zoom="7.9999996"
     inkscape:cx="23.07834"
     inkscape:cy="19.152566"
     inkscape:window-x="-9"
     inkscape:window-y="-9"
     inkscape:window-maximized="1"
     inkscape:current-layer="g18">
    <inkscape:grid
       type="xygrid"
       id="grid1915" />
  </sodipodi:namedview>
  <g
     inkscape:groupmode="layer"
     inkscape:label="Layer1"
     id="g18">
    <path
       sodipodi:nodetypes="cccsscccsccccccccccccccccccccccccccccccccccccccscccccccccccccccccccscccccccccccccccccccccccccccc"
       class="outline"
       d="m 35.104497,314.91979 c 33.682662,0 64.472254,0.69696 98.127823,1.74999 9.82182,0.30706 25.31218,1.03086 33.41732,-6.54856 5.7308,-5.36164 6.44631,-15.46822 6.44631,-23.00444 v -76.12386 c 0,-56.19214 2.3572,-111.869098 -5.55674,-167.472533 C 165.23788,27.364379 168.07134,9.4412779 159.96618,-4.2092551 113.18194,-17.306357 73.081171,-17.306357 39.663859,2.3392971 32.980398,21.984952 27.844576,131.41856 27.874994,162.78113 L 28.007576,299.4817 M 125.82295,2.9210092 l 4.3899,18.8673618 21.39537,1.432329 2.14877,111.64833 -2.52228,4.4109 C 138.07296,115.82569 73.981597,119.52543 52.391136,141.8174 L 52.764657,10.53339 H 54.91342 L 58.556279,24.325834 74.741439,21.984952 76.907904,4.4434891 125.82295,2.9210092 M 69.954833,6.8908027 C 72.658851,18.882842 70.73031,18.844432 60.331536,19.801054 60.992712,9.7222606 58.325461,9.9619844 66.219616,6.0086215 M 137.12548,4.8291802 c 7.0568,-2.6922517 9.8403,10.8983938 3.18018,13.5957258 -7.20011,2.912999 -9.85599,-11.050653 -3.18018,-13.5957258 m 16.63151,3.1667431 -2.14877,7.6123937 h -2.14878 V 7.9959233 h 4.29755 M 89.101477,33.200546 C 56.005862,42.137497 71.544709,97.959113 99.092639,87.941193 121.34489,79.84924 118.41266,25.283658 89.101477,33.200546 M 109.37981,55.652725 C 111.10066,74.564868 107.64585,90.050954 86.582686,80.36814 80.15231,80.946582 75.414717,69.381794 73.521668,53.0062 M 44.169556,58.745166 V 145.01886 C 26.541235,138.1094 39.415787,44.288062 46.410689,28.75118 m 115.941391,29.993986 4.29756,78.661344 h -6.44633 c -0.15049,-23.469 -10.04726,-88.106084 -0.46588,-109.537506 M 108.63275,130.51729 c 10.40026,-1.44381 29.69323,-0.0681 37.41615,9.90155 8.3205,10.7411 2.87028,37.37342 -9.48256,39.40088 -16.61638,-4.89508 -34.68094,-9.27902 -51.570094,-5.19878 -19.523676,12.58517 -16.425222,7.29518 -22.737879,3.08555 -12.993639,-8.66291 -8.334236,-30.4597 1.344696,-38.99575 11.725426,-10.34014 31.136581,-6.26245 45.029687,-8.19345 m 58.01689,17.03905 c 2.84496,20.02566 6.30876,66.44853 -6.44633,81.19881 l 2.14877,-81.19881 h 4.29756 M 44.169556,228.75515 c -16.06702,-10.46194 -10.968153,-68.19111 -10.836223,-87.26013 18.89008,7.22668 10.837947,68.63513 10.836223,87.26013 M 153.75699,165.31858 v 65.97403 c -20.64822,-7.7012 -10.37149,-51.73378 0,-65.97403 m -55.868096,13.41304 c 10.491376,-1.5174 29.768886,-1.42352 36.469396,10.48735 5.84295,10.38581 6.02365,51.86317 -6.51248,54.38539 -11.36982,2.28624 -49.364857,6.44264 -58.444712,-2.23296 -5.094103,-4.86687 -3.73457,-15.98346 -3.743804,-22.76612 -0.03931,-28.89662 8.002888,-36.36942 32.2316,-39.87366 m -39.549632,5.5757 c 13.023196,3.16138 3.260609,42.76374 -8.128741,51.48248 l 1.596335,-59.25034 m -7.6373,120.72716 c -10.903633,3.59837 -14.347245,-51.18816 -10.817954,-68.15013 10.817954,-0.36134 10.807432,26.66517 10.817954,30.0882 4.637269,15.7998 -6.270959,35.3942 -6.723396,38.94411 m 116.31083,-59.2438 -4.48227,23.60542 -11.95681,-16.43897 c 3.05704,-18.51375 4.40808,-19.16443 16.43908,-7.16645 m 12.89265,-2.53747 v 60.89909 c -11.68937,-8.94965 -7.88601,-46.55991 -4.29756,-60.89909 h 4.29756 M 63.693235,249.93218 52.017607,261.0781 54.91342,238.905 l 5.791635,-2.20547 m 80.159285,30.11755 H 63.50852 c 0.184715,-16.8849 86.93289,-18.35764 77.35582,0 m 12.89265,7.61239 v 27.91209 H 52.764657 v -27.91209 z"
       id="path22" />
    <path
       sodipodi:nodetypes="sssscsssscsssccsssssssssscss"
       class="body"
       d="m 52.847915,106.59913 c 0.395331,-18.253757 0.718776,-47.178171 0.718776,-64.27648 0,-17.098278 0.407252,-30.53491 0.905015,-29.859171 0.497756,0.675717 1.510347,3.754646 2.250204,6.841996 l 1.345187,5.613372 6.730039,-0.856572 C 75.038476,22.758752 75.138099,22.685533 75.914252,15.890288 77.166217,4.9294054 76.303767,5.6261046 89.799851,4.6728495 96.512996,4.1986785 107.34461,3.9971313 113.87008,4.2249555 l 11.86453,0.4141634 1.87058,8.1281761 c 1.02883,4.470498 2.16594,8.479078 2.52693,8.907971 0.36095,0.428855 5.26765,1.066366 10.9037,1.416628 l 10.2474,0.636816 0.70562,51.239786 c 0.38815,28.181874 0.92603,52.985734 1.19541,55.119664 0.83805,6.63905 -0.84114,7.97884 -5.12952,4.09262 -8.11349,-7.35262 -21.68566,-11.20573 -39.47123,-11.20573 -18.504415,0 -40.371714,5.86099 -50.66128,13.57844 -2.371743,1.77887 -4.645442,3.23432 -5.052667,3.23432 -0.407226,0 -0.416963,-14.93489 -0.0216,-33.18866 z M 102.53592,86.407512 c 7.16976,-4.504728 11.38283,-14.211547 11.38283,-26.225764 0,-7.298651 -0.56777,-10.50389 -2.75556,-15.555032 -3.87443,-8.945288 -8.32277,-12.189194 -16.666061,-12.153518 -19.723536,0.08486 -30.274275,21.149121 -21.182164,42.290639 5.697661,13.248532 18.528933,18.361368 29.220955,11.643675 z"
       id="path1472" />
    <path
       sodipodi:nodetypes="ssssscs"
       class="body"
       d="m 40.840095,140.66557 c -1.312142,-1.99183 -2.966312,-6.93255 -3.67593,-10.97934 -1.871338,-10.67181 -0.674453,-46.271233 2.213435,-65.834936 4.714754,-31.939674 4.962843,-30.701304 4.629237,23.1074 -0.16912,27.277736 -0.414036,51.335716 -0.544256,53.462146 l -0.236775,3.86626 z"
       id="path1474" />
    <path
       sodipodi:nodetypes="ssscssscs"
       class="body"
       d="m 40.259596,223.20498 c -1.608715,-2.84527 -3.694945,-8.66506 -4.636067,-12.9329 -2.19791,-9.96722 -3.270714,-36.12654 -2.225649,-54.27029 l 0.816664,-14.17836 3.609706,4.67987 c 1.985339,2.57391 4.205441,6.91726 4.933568,9.65182 1.629722,6.12063 2.501825,47.63445 1.29988,61.87668 l -0.873158,10.3463 z"
       id="path1476" />
    <path
       sodipodi:nodetypes="ssssscs"
       class="body"
       d="m 36.896602,286.5601 c -2.878644,-10.44544 -4.111016,-23.51543 -3.778776,-40.07594 0.291583,-14.53398 0.449598,-15.51948 2.488384,-15.51948 3.687403,0 6.810488,9.74425 8.221544,25.65181 1.319224,14.87227 0.834029,19.64359 -3.123339,30.71455 l -2.030154,5.67945 z"
       id="path1478" />
    <path
       sodipodi:nodetypes="ccccccccc"
       class="body"
       d="M 53.566694,288.51605 V 275.58318 H 103.63834 153.71 v 12.93287 12.93291 H 103.63834 53.566694 Z"
       id="path1480" />
    <path
       sodipodi:nodetypes="sssssss"
       class="body"
       d="m 162.26616,289.05577 c -2.88464,-7.74792 -3.72944,-22.0922 -2.09737,-35.61104 1.77707,-14.71969 2.24301,-16.66026 4.00008,-16.66026 1.24914,0 1.51478,5.10293 1.51478,29.09902 0,16.00446 -0.27247,29.09902 -0.60548,29.09902 -0.33299,0 -1.59844,-2.66703 -2.81204,-5.92674 z"
       id="path1484" />
    <path
       sodipodi:nodetypes="scsssss"
       class="body"
       d="m 161.33227,214.76302 c 9.6e-4,-6.02655 0.32499,-23.64015 0.71902,-39.1413 0.62768,-24.69678 0.92897,-28.13523 2.43485,-27.79065 2.53324,0.5796 3.533,10.02809 3.73326,35.28191 0.17923,22.6014 -1.20825,32.96998 -5.35278,40.00027 -1.37531,2.33291 -1.53672,1.45449 -1.53433,-8.35023 z"
       id="path1486" />
    <path
       sodipodi:nodetypes="sssssss"
       class="body"
       d="m 160.23749,131.05811 c -0.002,-3.37872 -0.78895,-15.16385 -1.7488,-26.18912 -2.76843,-31.798596 -2.39793,-75.551636 0.60645,-71.610237 0.98972,1.298432 2.69573,23.612001 4.98054,65.143784 2.19021,39.811523 2.21928,38.798683 -1.11331,38.798683 -2.52029,0 -2.72155,-0.45378 -2.72485,-6.14311 z"
       id="path1488" />
    <path
       sodipodi:nodetypes="sssss"
       class="body"
       d="m 135.42296,16.666667 c -0.71841,-0.853572 -1.30623,-3.065094 -1.30623,-4.914499 0,-6.7088505 5.22078,-8.7514385 8.26395,-3.2332228 1.65174,2.9950928 1.65174,3.4713548 0,6.4664458 -1.91665,3.475502 -4.85084,4.184526 -6.95772,1.681276 z"
       id="path1490" />
    <path
       sodipodi:nodetypes="sssss"
       class="body"
       d="m 61.186291,14.463316 c 0,-4.295623 0.441936,-5.2013987 3.199847,-6.5586838 3.808781,-1.8744403 5.069899,-1.1795101 5.771363,3.1802618 0.679319,4.22227 -1.042866,6.627424 -5.433541,7.588214 -3.491935,0.764073 -3.537669,0.709654 -3.537669,-4.209792 z"
       id="path1492" />
    <path
       sodipodi:nodetypes="sssscscss"
       class="body"
       d="M 88.9434,80.888218 C 81.806832,78.575736 78.3483,73.844311 75.882189,63.019862 74.801269,58.275386 74.113945,54.22735 74.354803,54.02418 c 0.240868,-0.203187 8.152762,0.172497 17.58201,0.834849 l 17.144107,1.204211 v 6.985036 c 0,12.331167 -4.41268,19.964347 -11.399478,19.719184 -1.812507,-0.06319 -5.744629,-0.909244 -8.738042,-1.879222 z"
       id="path1494" />
    <path
       sodipodi:nodetypes="ssssssssss"
       class="body"
       d="m 77.836795,244.48024 c -5.916006,-1.38848 -8.666263,-3.19118 -10.306383,-6.75544 -1.639728,-3.56338 -1.451947,-28.5992 0.272302,-36.30125 2.685408,-11.99555 9.476396,-17.73724 24.826508,-20.99037 15.159918,-3.21286 30.530688,-1.4267 36.996788,4.29922 6.09394,5.39636 7.21205,9.75686 7.21205,28.12624 0,14.96703 -0.26927,17.41141 -2.45271,22.266 -1.34898,2.99928 -3.32661,6.00891 -4.3947,6.68808 -5.21695,3.31727 -41.482254,5.17216 -52.153821,2.66752 z"
       id="path1496" />
    <path
       sodipodi:nodetypes="csssc"
       class="window"
       d="m 53.876428,250.04072 c 1.543133,-13.26105 5.851559,-16.2562 8.118717,-5.64403 1.110562,5.19839 1.075957,5.2936 -3.564572,9.81151 -2.577304,2.50924 -4.884902,4.56219 -5.127996,4.56219 -0.243095,0 0.01517,-3.92836 0.573851,-8.72967 z"
       id="path1498" />
    <path
       sodipodi:nodetypes="sssscs"
       class="window"
       d="m 143.64122,253.80892 c -5.55589,-7.62477 -6.13568,-10.48287 -3.5932,-17.71263 1.88181,-5.35105 3.15282,-5.531 8.51097,-1.20512 4.62577,3.73463 4.76288,4.89507 2.06877,17.50999 l -1.81608,8.50359 z"
       id="path1500" />
    <path
       sodipodi:nodetypes="ccsccssc"
       class="body"
       d="M 149.54722,11.934832 V 8.2768646 h 1.96543 c 1.41029,0 1.91534,0.1613861 1.7881,0.57153 -0.0976,0.3143199 -0.56305,1.9604394 -1.03467,3.6579684 -0.7441,2.678795 -0.98029,3.086418 -1.78811,3.086418 -0.90687,0 -0.93075,-0.09414 -0.93075,-3.65798 z"
       id="path1502" />
    <path
       sodipodi:nodetypes="ssssssssssss"
       id="path1535"
       d="m 62.744277,177.45817 c -2.758007,-2.46272 -5.507002,-5.83044 -6.34791,-7.77665 -3.544854,-8.20424 -0.621011,-21.93421 6.187243,-29.05444 6.765754,-7.07583 13.812575,-8.66314 42.51367,-9.57638 23.66351,-0.75288 32.28529,1.13562 39.48826,8.6497 3.62623,3.78282 5.53994,10.87544 4.90539,18.18044 -0.87407,10.062 -7.40498,21.1777 -12.44272,21.1777 -0.85705,0 -5.36601,-1.00233 -10.0198,-2.22738 -12.45577,-3.27885 -22.53542,-4.5067 -32.083588,-3.90821 -7.913088,0.496 -8.810267,0.76117 -15.906447,4.70234 -4.136188,2.29721 -8.399889,4.17673 -9.474889,4.17673 -1.135834,0 -3.992207,-1.8195 -6.819209,-4.34385 z"
       class="window" />
    <path
       sodipodi:nodetypes="sssscsss"
       id="path1539"
       d="m 64.488242,264.79234 c 0.525883,-1.92009 6.253383,-5.18459 12.342279,-7.03482 14.107577,-4.2869 41.591039,-4.79327 54.051569,-0.99595 6.80907,2.07504 9.87994,4.23415 10.25201,7.20798 l 0.24592,1.96585 h -38.60246 c -30.535825,0 -38.537029,-0.23887 -38.289354,-1.14307 z"
       class="window" />
    <path
       sodipodi:nodetypes="ssssccss"
       id="path1541"
       d="m 150.03873,228.52828 c -3.49576,-2.53267 -5.55868,-6.49153 -7.00087,-13.43507 -1.09312,-5.26292 -1.1489,-7.33608 -0.38899,-14.45917 0.94875,-8.89333 3.33777,-18.28718 6.53359,-25.69073 4.53084,-10.49631 4.35421,-11.44579 4.38117,23.54825 0.0138,17.47824 -0.2353,31.77707 -0.5528,31.77519 -0.31748,-9.4e-4 -1.65495,-0.78415 -2.97213,-1.73847 z"
       class="window" />
    <path
       id="path1745"
       d="m 50.452148,234.13505 c -0.03695,-3.90184 1.375299,-54.73342 1.546121,-55.6499 l 0.218562,-1.17261 3.134655,3.72784 c 1.724062,2.05031 3.390625,3.72784 3.703486,3.72784 1.04648,0 3.182125,2.38759 4.012434,4.48579 3.473726,8.77823 -0.440127,28.30431 -8.165172,40.73613 -1.43989,2.31718 -3.744317,5.06479 -4.247866,5.06479 -0.106425,0 -0.197423,-0.41395 -0.202215,-0.91986 z"
       class="window"
       sodipodi:nodetypes="sscsssssss" />
  </g>
</svg>
